<svg xmlns="http://www.w3.org/2000/svg" xmlns:xlink="http://www.w3.org/1999/xlink" width="143.697" height="155.727" viewBox="0 0 143.697 155.727"><defs><clipPath id="clip-path"><rect id="Rect&#xE1;ngulo_18256" data-name="Rect&#xE1;ngulo 18256" width="143.697" height="155.727" fill="none"></rect></clipPath></defs><g id="Grupo_136690" data-name="Grupo 136690" transform="translate(-65.023 -38)"><g id="Grupo_136689" data-name="Grupo 136689"><g id="Grupo_136688" data-name="Grupo 136688"><g id="Grupo_136384" data-name="Grupo 136384" transform="translate(65.023 38)"><g id="Grupo_136383" data-name="Grupo 136383" clip-path="url(#clip-path)"><path id="Trazado_153540" data-name="Trazado 153540" d="M189.333,214.812c-1.7,0-3.4-.021-5.1.023a1.6,1.6,0,0,1-1.619-.924c-3.142-5.478-6.4-10.892-9.456-16.417a3.892,3.892,0,0,0-4.006-2.338c-9.483.123-18.969.064-28.454.03-.979,0-1.377.238-1.315,1.275a36.953,36.953,0,0,1,.008,4.081c-.049.974.321,1.217,1.254,1.213,8.549-.033,17.1.02,25.646-.064a2.737,2.737,0,0,1,2.762,1.66c1.9,3.41,3.9,6.762,5.825,10.154.731,1.286.688,1.332-.815,1.332q-22.33,0-44.659-.02c-3.109,0-3.1,0-3.1-3.1q-.007-23.733-.021-47.466c0-1.8-.005-1.813,1.769-1.814q22.011-.008,44.021,0a6.628,6.628,0,0,1,6.6,6.419,6.534,6.534,0,0,1-6.578,6.67q-15.567.026-31.134-.019c-1.188-.005-1.7.238-1.587,1.525a28.624,28.624,0,0,1,0,3.825c-.045.952.32,1.235,1.259,1.23,6.21-.034,12.42-.018,18.629-.018q6.316,0,12.632,0a13.106,13.106,0,0,0,12.426-17.718,13.34,13.34,0,0,0-12.508-8.439q-21.819-.029-43.639,0c-1.868,0-1.861.01-1.864-1.831,0-3.275.01-6.55-.041-9.825-.016-1.01.143-1.481,1.361-1.477,14.971.046,29.943.016,44.914.049,1.65,0,3.3.272,4.948.417a2.657,2.657,0,0,1,1.5.162c2.041,1.04,4.3,1.564,6.286,2.761a23.684,23.684,0,0,1,7.86,6.923c1.771,2.649,3.552,5.3,4.368,8.44a22.809,22.809,0,0,1,.849,5c.049,1.528-.049,3.062.026,4.589a14.166,14.166,0,0,1-.8,5.006,27.515,27.515,0,0,1-7.387,12.165,23.7,23.7,0,0,1-3.265,2.43c-1.128.734-1.544,1.373-.728,2.71,2.831,4.635,5.368,9.444,8.2,14.081a49.382,49.382,0,0,1,2.99,5.606c.342,1.346.133,1.788-1.089,1.759-2.322-.055-4.647.184-6.966-.066" transform="translate(-94.03 -106.331)" fill="#79bf00"></path><path id="Trazado_153541" data-name="Trazado 153541" d="M346.449,214.28c-1.27-2.419-2.567-4.821-4-7.151-1.236-2.005-2.367-4.075-3.545-6.115a43,43,0,0,0-2.442-4.134c-.665-.9-.888-2.005-1.627-2.857a.989.989,0,0,1,.235-1.38,13.272,13.272,0,0,1,1.591-1.26,22.839,22.839,0,0,0,6.459-6.513,31.228,31.228,0,0,0,3.445-7.172,12.608,12.608,0,0,0,.829-3.693,36.542,36.542,0,0,0-.508-10.26,17.978,17.978,0,0,0-2.272-5.581c-1.477-2.34-2.818-4.789-4.949-6.675a24.63,24.63,0,0,0-9.507-5.629c-1.131-.324-1.961-1.381-3.243-1.342a30.807,30.807,0,0,1,9.662,1.231,25.356,25.356,0,0,1,11.651,6.443,6.745,6.745,0,0,1,1.557,3.661,59.84,59.84,0,0,1,.971,9.751,16.427,16.427,0,0,0,5.091,11.306c.7.679,1.333,1.428,2.006,2.135,2.064,2.169,1.885,4.891-.631,6.486a1.945,1.945,0,0,0-.854,2.664,5.965,5.965,0,0,0,1.042,2.164,4.072,4.072,0,0,1,.766,4.275A9.621,9.621,0,0,1,357,196.219a.822.822,0,0,0-.089,1.218,2.364,2.364,0,0,1-.406,2.548,8.525,8.525,0,0,0-1.584,7.447c1.489,5.633-2.706,8.185-6.751,8.747-1.049-.2-1.207-1.212-1.721-1.9" transform="translate(-243.457 -107.603)" fill="#fe9100"></path><path id="Trazado_153542" data-name="Trazado 153542" d="M378.223,510.991c4.846-2.188,5.32-2.194,6.453-.048.865-.485,1.7-1.042,2.6-1.442,2.69-1.192,4.535.1,4.215,2.987A27.823,27.823,0,0,1,389.1,520.1a1.215,1.215,0,0,1-1.792.668c-.747-.371-.538-1.081-.239-1.673a23.542,23.542,0,0,0,2.14-6.238c.107-.564.238-1.132-.276-1.526-.478-.367-1-.057-1.444.141-3.108,1.373-4.461,3.972-4.946,7.164-.045.293-.067.591-.128.88-.157.748-.429,1.525-1.365,1.31s-1.068-.994-.811-1.833c.46-1.494.948-2.979,1.4-4.476.207-.689.368-1.394.52-2.1.179-.825-.243-1.222-.973-.909a7.934,7.934,0,0,0-4.51,4.2,14.382,14.382,0,0,0-1.029,4.185,1.852,1.852,0,0,1-.675,1.329.96.96,0,0,1-1.187-.049c-.57-.371-.535-.918-.38-1.475.716-2.573,1.446-5.143,2.153-7.718a10.069,10.069,0,0,0,.308-1.615c.1-.917.428-1.591,1.481-1.5s.911.91.88,1.632c-.007.159,0,.319,0,.489" transform="translate(-278.004 -378.956)" fill="#fff"></path><path id="Trazado_153543" data-name="Trazado 153543" d="M320.492,506.436c-2.116.008-2.735-.8-2.231-2.573.867-3.055,1.813-6.087,2.715-9.132a20.766,20.766,0,0,1,1.664-4.66c.721-1.242,1.046-1.293,2.23-.412.461.343.894.14,1.324.047a22.63,22.63,0,0,1,5.375-.93,5.647,5.647,0,0,1,.637.007c.5.071,1.15.1,1.24.673.108.7-.535.894-1.087.995a50.319,50.319,0,0,0-5.329,1.189,5.776,5.776,0,0,0-4.559,5.521c-.088.81.378.535.764.416,1.777-.547,3.541-1.14,5.334-1.627.613-.167,1.551-.79,1.871.159.312.925-.71,1.224-1.4,1.495-2.282.9-4.583,1.757-6.878,2.624-.753.284-1.812,3.2-1.372,3.856.3.444.786.284,1.169.2a11.9,11.9,0,0,0,3.814-1.353,4.34,4.34,0,0,1,2.592-.919c.3.025.606.033.751.369a.714.714,0,0,1-.24.8,3.387,3.387,0,0,1-.667.583,17.505,17.505,0,0,1-7.723,2.665" transform="translate(-236.889 -363.993)" fill="#fff"></path><path id="Trazado_153544" data-name="Trazado 153544" d="M477.754,503.186c.449-2.733,1.356-5.519,2.013-8.364.5-2.187,1.19-4.329,1.513-6.561.1-.7.323-1.534,1.329-1.347,1.081.2,1.068.957.843,1.854q-1.565,6.218-3.054,12.455c-.2.817-.235,1.671-.359,2.506-.109.733-.4,1.389-1.269,1.262-.9-.13-1.05-.865-1.014-1.806" transform="translate(-355.786 -362.591)" fill="#fff"></path><path id="Trazado_153545" data-name="Trazado 153545" d="M452.1,524.166c.263-1.048.593-2.4.942-3.741q.572-2.2,1.175-4.4c.188-.689.482-1.279,1.358-1.224.663.043,1.089.339.9,1.044-.818,3.1-1.669,6.194-2.509,9.29-.128.471-.431.764-.923.646-.653-.156-.993-.608-.946-1.614" transform="translate(-336.678 -383.375)" fill="#fff"></path><path id="Trazado_153546" data-name="Trazado 153546" d="M196.815,524.4q.9-3.376,1.8-6.752.279-1.041.586-2.074a1.1,1.1,0,0,1,1.511-.768c.723.191.646.75.486,1.338q-1.168,4.3-2.3,8.6c-.148.558-.308,1.154-1.047.992a1.285,1.285,0,0,1-1.03-1.335" transform="translate(-146.571 -383.334)" fill="#fff"></path><path id="Trazado_153547" data-name="Trazado 153547" d="M500.087,524.015c.494-1.856,1.072-4.025,1.649-6.195q.278-1.043.554-2.086a1.173,1.173,0,0,1,1.545-.93c.825.19.689.8.52,1.419-.766,2.824-1.5,5.655-2.27,8.479-.141.522-.267,1.186-1.022,1.052-.727-.129-1.043-.672-.976-1.739" transform="translate(-372.415 -383.345)" fill="#fff"></path><path id="Trazado_153548" data-name="Trazado 153548" d="M193.346,568.344c.006-2.287,2.742-5.88,4.909-6.459a1.4,1.4,0,0,1,1.658.6.814.814,0,0,1-.031,1.055c-.257.217-.531-.1-.663-.386-.178-.384-.477-.278-.754-.187-1.7.554-3.843,3.6-3.86,5.473-.011,1.269.5,1.731,1.723,1.474a5.814,5.814,0,0,0,2.327-.961c.259-.192.56-.437.884-.054s.1.668-.18.857a5.56,5.56,0,0,1-4.4,1.186c-1.19-.279-1.6-1.4-1.61-2.6" transform="translate(-143.987 -418.392)" fill="#fff"></path><path id="Trazado_153549" data-name="Trazado 153549" d="M250.521,570.667c.364-1.507.742-3.071,1.119-4.636.227-.945.411-1.9.693-2.833.14-.46.02-1.315.852-1.145s.445.89.331,1.375c-.488,2.064-1.028,4.115-1.532,6.175a10.06,10.06,0,0,0-.181,1.259c-.047.417-.211.821-.652.8-.513-.023-.65-.464-.63-1" transform="translate(-186.564 -418.552)" fill="#fff"></path><path id="Trazado_153550" data-name="Trazado 153550" d="M381.005,417.87l1.721,1.9c-3.144.672-6.285,1-9.41-.1a30.28,30.28,0,0,1,6.383-.268c1.766.053,1.767.028,1.306-1.536" transform="translate(-278.013 -311.193)" fill="#fe9100"></path><path id="Trazado_153551" data-name="Trazado 153551" d="M313.834,576.747c-.4,1.464-.852,3.082-1.295,4.7-.084.309-.194.573-.589.483a.6.6,0,0,1-.474-.663c.409-1.713.868-3.414,1.334-5.112.095-.344.412-.4.725-.312.394.114.287.451.3.9" transform="translate(-231.953 -428.81)" fill="#fff"></path><path id="Trazado_153552" data-name="Trazado 153552" d="M514.739,493.692c.466.4,1.309.486,1.162,1.409a1.69,1.69,0,0,1-1.818,1.441c-.723.025-1.018-.505-.948-1.214.094-.944.7-1.39,1.6-1.636" transform="translate(-382.13 -367.658)" fill="#fff"></path><path id="Trazado_153553" data-name="Trazado 153553" d="M465.119,495.806c0-1.081.82-2.057,1.553-1.883.563.134,1.263.379,1.231,1.2-.041,1.062-.812,1.453-1.688,1.576a.892.892,0,0,1-1.1-.894" transform="translate(-346.38 -367.816)" fill="#fff"></path><path id="Trazado_153554" data-name="Trazado 153554" d="M212.972,494.97a1.894,1.894,0,0,1-1.869,1.725.987.987,0,0,1-.936-1.133c0-.831.9-1.835,1.589-1.676.6.138,1.18.473,1.215,1.084" transform="translate(-156.514 -367.79)" fill="#fff"></path><path id="Trazado_153555" data-name="Trazado 153555" d="M319.291,566.469a.548.548,0,0,1-.641-.58.856.856,0,0,1,.732-.91.616.616,0,0,1,.758.641.887.887,0,0,1-.85.848" transform="translate(-237.302 -420.742)" fill="#fff"></path><path id="Trazado_153556" data-name="Trazado 153556" d="M442.883,343.721c-.392-.249-.75-.7-.352-1.005.66-.515.922-1.345,1.615-1.8-.024,1.113-1.45,1.594-1.263,2.8" transform="translate(-329.429 -253.887)" fill="#fe9100"></path><path id="Trazado_153557" data-name="Trazado 153557" d="M13.563,493.965c1.974-2.245,1.075-4.809-1.849-5.414a12.107,12.107,0,0,0-3.8-.162,6.642,6.642,0,0,1-2.154-.124c-1.809-.4-2.6.2-2.48,2.043a8.126,8.126,0,0,1-.3,2.634c-.575,2.169-1.164,4.336-1.734,6.506-.409,1.556-.8,3.118-1.195,4.678a.93.93,0,0,0,.565,1.25,1.016,1.016,0,0,0,1.31-.693,6.586,6.586,0,0,0,.273-.844c.53-1.842,1.056-3.685,1.613-5.627.327.743.817.749,1.419.655a4,4,0,0,1,3.08.873,10.817,10.817,0,0,1,3.171,4.373c.353.729.843,1.417,1.764.927.885-.471.836-1.258.42-2.087a11.1,11.1,0,0,0-5.249-5.593c.666-.343,1.108-.583,1.56-.8a11.166,11.166,0,0,0,3.587-2.594m-7.236,2.528c-.638.295-1.307.523-2.225.885l1.68-6.158a.357.357,0,0,1,.04-.119c.728-.977,5.587-.943,6.239.06.5.769.048,1.379-.457,1.9a16.87,16.87,0,0,1-5.277,3.43" transform="translate(0 -363.53)" fill="#fff"></path><path id="Trazado_153558" data-name="Trazado 153558" d="M115.736,512.652c-3.2-.316-7.414,4.884-7.185,7.879a2.394,2.394,0,0,0,3.072,1.98,11.2,11.2,0,0,0,2.929-1.72,1.078,1.078,0,0,1,0,.275c-.037.12-.124.227-.149.348-.553,2.643-1.464,4.972-4.572,5.513a1.209,1.209,0,0,0-1.011,1.523c.183.906.987.632,1.576.536,2.946-.483,4.481-2.556,5.514-5.093a42.314,42.314,0,0,0,1.994-8.651c.313-1.75-.384-2.416-2.164-2.591m-4.433,7.9c-.6.128-.757-.191-.726-.706a2.741,2.741,0,0,1,.4-1.454,10.679,10.679,0,0,1,3.746-3.889c.238-.15.53-.4.8-.132a1.03,1.03,0,0,1,.267.809c-.1,1.7-2.877,5.03-4.482,5.371" transform="translate(-80.833 -381.768)" fill="#fff"></path><path id="Trazado_153559" data-name="Trazado 153559" d="M159.308,512.787a4.188,4.188,0,0,0-2.163.651,10.091,10.091,0,0,0-4.611,6.432,2.384,2.384,0,0,0,3.03,2.754,10.993,10.993,0,0,0,2.965-1.757c-.138.565-.242,1.058-.381,1.541-.632,2.2-1.513,4.169-4.172,4.521a1.669,1.669,0,0,0-.868.492,1.184,1.184,0,0,0-.321,1.288c.191.5.664.487,1.086.442a6.356,6.356,0,0,0,2.193-.594c2.494-1.246,3.6-3.537,4.3-6.015.628-2.234.988-4.544,1.452-6.823.437-2.149-.319-3.018-2.51-2.932m-3.975,7.85c-.663.165-.832-.13-.808-.721a4.356,4.356,0,0,1,.952-2.308,10.366,10.366,0,0,1,3.226-3c.762-.457.97-.109,1.006.455,0,1.745-2.782,5.174-4.375,5.569" transform="translate(-113.553 -381.874)" fill="#fff"></path><path id="Trazado_153560" data-name="Trazado 153560" d="M230.39,511.4c-1.158-1.138-2.342-.446-3.529-.033a9.776,9.776,0,0,0-5.761,7.925c-.054,2.6,1.87,4.13,4.533,3.417,3.458-.927,5.289-3.454,6.136-6.789a4.476,4.476,0,0,0-1.379-4.519m-.767,4.293c-.556,2.252-1.581,4.123-3.917,4.917-1.481.5-2.53-.215-2.549-1.648a6.118,6.118,0,0,1,4.476-5.318c.5-.088.978-.815,1.518-.209a2.346,2.346,0,0,1,.473,2.259" transform="translate(-164.655 -380.38)" fill="#fff"></path><path id="Trazado_153561" data-name="Trazado 153561" d="M532.615,512.661c-1.452-.091-3.013-.45-4.376.327a9.281,9.281,0,0,0-4.908,7.443,2.329,2.329,0,0,0,3.527,2.27c.847-.451,1.614-1.052,2.511-1.647,0,.371.015.615,0,.856-.053.678-.481,1.55.689,1.665,1.063.1,1.4-.625,1.448-1.529a11.055,11.055,0,0,1,.424-2.246c.485-1.8.924-3.607,1.387-5.411.2-.767.185-1.672-.7-1.728m-1.63,2.589a4.061,4.061,0,0,1-.77,2.3,9.468,9.468,0,0,1-3.645,3.278c-.983.486-1.432.083-1.273-.995a7.067,7.067,0,0,1,4.529-5.07c.583-.149,1.247-.376,1.159.49" transform="translate(-389.72 -381.664)" fill="#fff"></path><path id="Trazado_153562" data-name="Trazado 153562" d="M71.6,521.9c-.672.254-1.306.61-1.978.865a4.967,4.967,0,0,1-3.35.22,1.078,1.078,0,0,1-.852-1.117c.011-.6.507-.71.954-.82.286-.07.59-.062.881-.115a8.729,8.729,0,0,0,4.126-1.516,2.79,2.79,0,0,0,1.081-3.355,2.678,2.678,0,0,0-3.045-1.278c-2.881.421-4.135,2.886-5.9,4.717-.709.736-.2,1.47-.159,2.237.143,2.6,1.054,3.526,3.754,3.527a7.279,7.279,0,0,0,2.428-.339,6.283,6.283,0,0,0,2.968-1.654,1.193,1.193,0,0,0,.343-1.4c-.317-.538-.847-.123-1.25.029m-2.8-4.911c.52-.2,1.178-.422,1.458.2.323.719-.369,1.035-.893,1.277a6.885,6.885,0,0,1-2.868.592,4.188,4.188,0,0,1,2.3-2.07" transform="translate(-47.026 -383.331)" fill="#fff"></path><path id="Trazado_153563" data-name="Trazado 153563" d="M291.6,575.841c-1.576-.1-2.505.937-3.236,2.083-.536.842-1.343,1.853-.371,2.868s1.827.018,2.827-.451c-.373,1.43-.689,2.726-2.356,3.011-.5.085-.8.434-.649.9s.631.286.983.211a3.806,3.806,0,0,0,2.8-2.67,25.51,25.51,0,0,0,1.085-4.682c.167-.979-.321-1.221-1.088-1.269m-.062,1.267a4.451,4.451,0,0,1-2.188,2.919c-.447.262-.61.041-.612-.41a5.363,5.363,0,0,1,2.3-2.894c.4-.1.521.019.5.385" transform="translate(-214.13 -428.831)" fill="#fff"></path><path id="Trazado_153564" data-name="Trazado 153564" d="M329.187,574.81a5.209,5.209,0,0,0-3.958,4.444,1.675,1.675,0,0,0,1.793,1.955c2.078.085,4.42-2.656,4.011-4.693-.235-1.175-.952-1.837-1.846-1.706m-1.048,5.119a1.24,1.24,0,0,1-1.546-.006c-.467-.4-.336-.92-.149-1.4a3.466,3.466,0,0,1,2.3-2.336c.9-.256,1.123.149,1.117,1.071a3.891,3.891,0,0,1-1.724,2.671" transform="translate(-242.201 -428.056)" fill="#fff"></path><path id="Trazado_153565" data-name="Trazado 153565" d="M227.1,574.846a5.3,5.3,0,0,0-3.9,4.493c-.01,1.324.736,2,2.108,1.9a4.587,4.587,0,0,0,3.719-4.466c-.139-1.241-.971-2.072-1.926-1.924m-1.2,5.214c-.934.382-1.707-.139-1.6-1.076a3.714,3.714,0,0,1,2.371-2.766c.806-.224,1.209.053,1.175.908a3.676,3.676,0,0,1-1.947,2.934" transform="translate(-166.215 -428.083)" fill="#fff"></path><path id="Trazado_153566" data-name="Trazado 153566" d="M266.309,580.595a3.944,3.944,0,0,1-2.014.7c-.461-.013-.855-.149-.92-.677-.07-.568.4-.554.756-.634a6.491,6.491,0,0,0,2.046-.645c.712-.434,1.255-1.035.927-1.869-.367-.935-1.25-.9-2.07-.665-1.081.309-1.665,1.233-2.425,1.968a2.211,2.211,0,0,0-.331,2.647c.314.893,1.234.9,2.094.952a5.017,5.017,0,0,0,2.436-.882c.4-.269.662-.654.379-1.058-.26-.37-.608.017-.879.165m-.609-2.817a.265.265,0,0,1,.195.385c-.414.788-1.157.781-1.929.812a1.654,1.654,0,0,1,1.734-1.2" transform="translate(-195.11 -429.448)" fill="#fff"></path><path id="Trazado_153567" data-name="Trazado 153567" d="M280.925,0l1.849,5.692h5.985L283.917,9.21l1.849,5.692-4.842-3.518L276.083,14.9l1.849-5.692-4.842-3.518h5.985Z" transform="translate(-203.374 0)" fill="#fff"></path><path id="Trazado_153568" data-name="Trazado 153568" d="M210.926,0l1.849,5.692h5.985L213.919,9.21l1.849,5.692-4.842-3.518L206.084,14.9l1.849-5.692-4.842-3.518h5.985Z" transform="translate(-151.245 0)" fill="#fff"></path><path id="Trazado_153569" data-name="Trazado 153569" d="M152.087,31.889l1.351,4.157h4.371l-3.536,2.569,1.351,4.157L152.087,40.2l-3.536,2.569,1.351-4.157-3.536-2.569h4.371Z" transform="translate(-109 -23.748)" fill="#fff"></path><path id="Trazado_153570" data-name="Trazado 153570" d="M99.749,82.679l1.053,3.242h3.409l-2.758,2,1.054,3.242-2.758-2-2.758,2,1.054-3.242-2.758-2H98.7Z" transform="translate(-70.961 -61.572)" fill="#fff"></path><path id="Trazado_153571" data-name="Trazado 153571" d="M66.745,126.657l.829,2.551h2.682l-2.17,1.576.829,2.551-2.17-1.576-2.17,1.576.829-2.551-2.17-1.576h2.682Z" transform="translate(-47.091 -94.323)" fill="#fff"></path><path id="Trazado_153572" data-name="Trazado 153572" d="M352.921,31.889l-1.351,4.157H347.2l3.536,2.569-1.351,4.157,3.536-2.569,3.536,2.569-1.351-4.157,3.536-2.569h-4.371Z" transform="translate(-258.564 -23.748)" fill="#fff"></path><path id="Trazado_153573" data-name="Trazado 153573" d="M412.608,82.679l-1.053,3.242h-3.409l2.758,2-1.054,3.242,2.758-2,2.758,2-1.054-3.242,2.758-2h-3.409Z" transform="translate(-303.951 -61.572)" fill="#fff"></path><path id="Trazado_153574" data-name="Trazado 153574" d="M451.162,126.657l-.829,2.551h-2.682l2.17,1.576-.829,2.551,2.17-1.576,2.17,1.576-.829-2.551,2.17-1.576H451.99Z" transform="translate(-333.371 -94.323)" fill="#fff"></path></g></g></g></g></g></svg>